# xmcd
#
# Track frame offsets: 
#        150
#        12215
#        30860
#        44770
#        54487
#        73722
#        87772
#        101475
#        112225
#        131520
#        145980
#        160840
#        175335
#        188812
#        204287
#        219157
#        233385
#        248520
#        264117
#        285217
#
# Disc length: 4007 seconds
#
# Revision: 0
# Processed by: cddbd v1.5.2PL0 Copyright (c) Steve Scherf et al.
# Submitted via: ExactAudioCopyFreeDBPlugin 1.0
#
DISCID=030fa514
DTITLE=Edith Piaf - Une Vie en Chansons 1-3
DYEAR=2000
DGENRE=Chanson
TTITLE0=Le roi a fait battre tambour
TTITLE1=Les trois cloches
TTITLE2=Adieu mon coieur
TTITLE3=Le chant des pirates
TTITLE4=J'm'en fous pas mal
TTITLE5=La vie en rose
TTITLE6=Un refrain
TTITLE7=Qu'as tu fais John ?
TTITLE8=C'est pour ça
TTITLE9=Les amants de Paris
TTITLE10=Il pleut
TTITLE11=Le prisonnier de la tour
TTITLE12=Bal dans ma rue
TTITLE13=Hymne à l'aour
TTITLE14=C'est un gars
TTITLE15=Il y avait
TTITLE16=Je hais les dimanches
TTITLE17=Autum leaves
TTITLE18=My lost melody
TTITLE19=Hymn to love
EXTD=
EXTT0=
EXTT1=
EXTT2=
EXTT3=
EXTT4=
EXTT5=
EXTT6=
EXTT7=
EXTT8=
EXTT9=
EXTT10=
EXTT11=
EXTT12=
EXTT13=
EXTT14=
EXTT15=
EXTT16=
EXTT17=
EXTT18=
EXTT19=
PLAYORDER=
